<svg width="44" height="44" viewBox="44 44 20 16" fill="none" xmlns="http://www.w3.org/2000/svg">
<rect x="44" y="44" width="20" height="16" rx="8" fill="white" style="mix-blend-mode:screen"/>
<g filter="url(#filter1_ddd_33_3193)">
<path d="M44 52C44 47.5817 47.5817 44 52 44H56C60.4183 44 64 47.5817 64 52C64 56.4183 60.4183 60 56 60H52C47.5817 60 44 56.4183 44 52Z" fill="white" fill-opacity="0.65" shape-rendering="crispEdges"/>
<path d="M44 52C44 47.5817 47.5817 44 52 44H56C60.4183 44 64 47.5817 64 52C64 56.4183 60.4183 60 56 60H52C47.5817 60 44 56.4183 44 52Z" fill="white" fill-opacity="0.45" style="mix-blend-mode:lighten" shape-rendering="crispEdges"/>
<path d="M44 52C44 47.5817 47.5817 44 52 44H56C60.4183 44 64 47.5817 64 52C64 56.4183 60.4183 60 56 60H52C47.5817 60 44 56.4183 44 52Z" fill="white" fill-opacity="0.35" shape-rendering="crispEdges"/>
</g>
<defs>
<filter id="filter1_ddd_33_3193" x="0" y="0" width="108" height="104" filterUnits="userSpaceOnUse" color-interpolation-filters="sRGB">
<feFlood flood-opacity="0" result="BackgroundImageFix"/>
<feColorMatrix in="SourceAlpha" type="matrix" values="0 0 0 0 0 0 0 0 0 0 0 0 0 0 0 0 0 0 127 0" result="hardAlpha"/>
<feOffset/>
<feGaussianBlur stdDeviation="22"/>
<feComposite in2="hardAlpha" operator="out"/>
<feColorMatrix type="matrix" values="0 0 0 0 0 0 0 0 0 0 0 0 0 0 0 0 0 0 0.1 0"/>
<feBlend mode="normal" in2="BackgroundImageFix" result="effect1_dropShadow_33_3193"/>
<feColorMatrix in="SourceAlpha" type="matrix" values="0 0 0 0 0 0 0 0 0 0 0 0 0 0 0 0 0 0 127 0" result="hardAlpha"/>
<feOffset/>
<feGaussianBlur stdDeviation="2"/>
<feComposite in2="hardAlpha" operator="out"/>
<feColorMatrix type="matrix" values="0 0 0 0 0 0 0 0 0 0 0 0 0 0 0 0 0 0 0.05 0"/>
<feBlend mode="normal" in2="effect1_dropShadow_33_3193" result="effect2_dropShadow_33_3193"/>
<feColorMatrix in="SourceAlpha" type="matrix" values="0 0 0 0 0 0 0 0 0 0 0 0 0 0 0 0 0 0 127 0" result="hardAlpha"/>
<feOffset/>
<feGaussianBlur stdDeviation="0.5"/>
<feComposite in2="hardAlpha" operator="out"/>
<feColorMatrix type="matrix" values="0 0 0 0 0 0 0 0 0 0 0 0 0 0 0 0 0 0 0.05 0"/>
<feBlend mode="normal" in2="effect2_dropShadow_33_3193" result="effect3_dropShadow_33_3193"/>
<feBlend mode="normal" in="SourceGraphic" in2="effect3_dropShadow_33_3193" result="shape"/>
</filter>
</defs>
</svg>
